<svg xmlns="http://www.w3.org/2000/svg" version="1.1" xmlns:xlink="http://www.w3.org/1999/xlink" xmlns:svgjs="http://svgjs.com/svgjs" width="1000" height="1000"><rect width="1000" height="1000" rx="500" ry="500" fill="#ffffff"></rect><g transform="matrix(1,0,0,1,0,0)"><svg xmlns="http://www.w3.org/2000/svg" version="1.1" xmlns:xlink="http://www.w3.org/1999/xlink" xmlns:svgjs="http://svgjs.com/svgjs" width="50pt" height="50pt"><svg version="1.0" xmlns="http://www.w3.org/2000/svg" width="50pt" height="50pt" viewBox="0 0 256.000000 256.000000" preserveAspectRatio="xMidYMid meet">

<g transform="translate(0.000000,256.000000) scale(0.100000,-0.100000)" fill="#997245" stroke="none">
<path d="M1508 2523 c7 -3 16 -2 19 1 4 3 -2 6 -13 5 -11 0 -14 -3 -6 -6z"></path>
<path d="M918 2493 c7 -3 16 -2 19 1 4 3 -2 6 -13 5 -11 0 -14 -3 -6 -6z"></path>
<path d="M1628 2493 c7 -3 16 -2 19 1 4 3 -2 6 -13 5 -11 0 -14 -3 -6 -6z"></path>
<path d="M1670 2480 c8 -5 22 -9 30 -9 10 0 8 3 -5 9 -27 12 -43 12 -25 0z"></path>
<path d="M778 2446 c-473 -207 -768 -650 -768 -1158 0 -53 4 -99 9 -103 5 -3
11 5 13 17 5 38 41 30 54 -12 11 -31 12 -22 13 75 2 141 14 228 46 340 104
365 381 661 743 794 66 24 156 46 262 64 14 3 -1 3 -33 1 -32 -2 -94 -13 -138
-24 -44 -11 -84 -18 -89 -15 -6 3 -17 2 -26 -3 -9 -5 -33 -6 -55 -2 -25 5 -40
3 -43 -4 -3 -7 -5 -6 -5 2 -1 7 9 16 22 21 51 20 91 39 82 40 -5 0 -45 -14
-87 -33z m112 -30 c0 -2 -7 -7 -16 -10 -8 -3 -12 -2 -9 4 6 10 25 14 25 6z"></path>
<path d="M1268 2473 c23 -2 59 -2 80 0 20 2 1 4 -43 4 -44 0 -61 -2 -37 -4z"></path>
<path d="M1391 2466 c2 -2 31 -6 64 -9 39 -4 50 -3 30 2 -31 9 -102 14 -94 7z"></path>
<path d="M1765 2446 c28 -14 55 -25 60 -25 15 0 -56 36 -85 43 -14 3 -2 -5 25
-18z"></path>
<path d="M1607 2422 c236 -74 443 -213 593 -398 157 -196 239 -410 262 -682 7
-79 15 -135 19 -125 3 11 16 18 30 18 19 0 25 -7 30 -30 14 -67 8 207 -6 295
-58 356 -285 684 -601 871 l-79 47 -107 0 c-59 1 -115 5 -125 10 -10 5 -38 12
-63 16 -31 4 -16 -3 47 -22z"></path>
<path d="M1060 1566 l0 -136 -30 0 c-16 0 -30 -4 -30 -10 0 -5 14 -10 30 -10
l30 0 0 -165 0 -165 50 0 50 0 -2 308 -3 307 -47 3 -48 3 0 -135z"></path>
<path d="M1287 1693 c-3 -2 -6 -142 -7 -309 l-1 -304 51 0 50 0 0 120 0 120
73 0 72 0 50 -120 50 -120 53 0 c28 0 52 1 52 3 0 1 -25 58 -55 127 l-54 125
34 30 c80 69 88 194 17 268 -51 54 -75 60 -234 63 -80 1 -149 0 -151 -3z m310
-118 c32 -32 35 -40 30 -73 -4 -24 -17 -47 -37 -64 -28 -26 -36 -28 -120 -28
l-90 0 0 100 0 100 91 0 c91 0 91 0 126 -35z"></path>
<path d="M310 1281 l0 -411 70 0 70 0 0 195 c0 107 3 195 8 194 4 0 43 -43 86
-96 l80 -96 43 49 c24 27 48 56 52 64 7 11 -39 72 -185 245 -106 127 -198 229
-204 228 -5 -2 -7 3 -4 11 3 8 1 17 -5 21 -8 4 -11 -116 -11 -404z m41 342
c13 -16 12 -17 -3 -4 -10 7 -18 15 -18 17 0 8 8 3 21 -13z"></path>
<path d="M812 1547 c-109 -130 -131 -167 -103 -167 4 0 59 61 120 135 81 97
112 141 109 157 -2 18 -27 -7 -126 -125z"></path>
<path d="M1980 1687 c0 -4 -186 -547 -199 -580 l-11 -28 53 3 52 3 21 60 21
60 119 0 118 0 20 -62 20 -63 53 0 c29 0 53 2 53 4 0 5 -185 543 -199 579 -10
25 -15 27 -66 27 -30 0 -55 -1 -55 -3z m99 -261 c22 -65 41 -120 41 -122 0 -2
-38 -4 -85 -4 -47 0 -85 2 -85 5 0 2 16 53 36 112 20 59 38 114 40 122 6 20 8
17 53 -113z"></path>
<path d="M833 1468 c-80 -96 -99 -125 -91 -136 10 -11 14 -10 27 6 9 11 51 63
94 116 52 63 77 102 75 115 -2 16 -27 -8 -105 -101z"></path>
<path d="M857 1395 c-70 -84 -77 -97 -66 -116 7 -15 10 -81 8 -212 -3 -146 -1
-191 9 -194 9 -4 12 44 12 214 0 208 4 243 30 243 3 0 4 -103 2 -230 -2 -201
-1 -230 13 -230 13 0 15 32 15 254 0 213 2 256 15 266 13 11 15 -18 15 -254 0
-232 2 -266 15 -266 14 0 16 37 15 310 -1 171 -2 310 -3 310 -1 0 -37 -43 -80
-95z"></path>
<path d="M2461 1154 c0 -11 3 -14 6 -6 3 7 2 16 -1 19 -3 4 -6 -2 -5 -13z"></path>
<path d="M1238 1143 c6 -2 18 -2 25 0 6 3 1 5 -13 5 -14 0 -19 -2 -12 -5z"></path>
<path d="M1691 1044 c0 -11 3 -14 6 -6 3 7 2 16 -1 19 -3 4 -6 -2 -5 -13z"></path>
<path d="M1140 1027 c0 -18 -5 -23 -27 -22 -38 0 -60 -43 -41 -82 11 -23 20
-28 51 -30 l37 -1 0 50 c0 27 5 59 11 70 8 15 8 19 0 14 -6 -4 -11 0 -11 8 0
9 -4 16 -10 16 -5 0 -10 -10 -10 -23z m-12 -39 c31 -31 0 -105 -33 -78 -25 21
-14 90 15 90 3 0 11 -5 18 -12z"></path>
<path d="M1415 1040 c3 -5 8 -10 11 -10 2 0 4 5 4 10 0 6 -5 10 -11 10 -5 0
-7 -4 -4 -10z"></path>
<path d="M2110 1026 c0 -19 -4 -23 -20 -19 -30 8 -50 -15 -50 -57 0 -45 16
-60 58 -57 36 2 43 15 37 67 -2 19 -4 47 -4 63 -1 33 -21 37 -21 3z m-6 -49
c28 -42 -12 -101 -41 -61 -16 22 -16 39 -3 65 14 25 26 24 44 -4z"></path>
<path d="M2160 1039 c0 -5 5 -7 10 -4 6 3 10 8 10 11 0 2 -4 4 -10 4 -5 0 -10
-5 -10 -11z"></path>
<path d="M1871 1028 c-1 -10 -6 -18 -13 -18 -9 0 -9 -3 0 -12 7 -7 12 -31 12
-54 0 -24 5 -46 11 -49 14 -9 27 4 13 13 -13 9 -12 75 1 85 7 4 6 10 -1 15 -6
4 -14 14 -17 22 -4 12 -6 11 -6 -2z"></path>
<path d="M1200 994 c-8 -8 -13 -28 -13 -44 0 -16 5 -36 13 -44 15 -19 51 -21
68 -4 21 21 13 32 -9 12 -21 -19 -48 -12 -57 14 -3 10 39 18 71 13 12 -2 8 44
-5 57 -17 17 -53 15 -68 -4z m60 -14 c10 -18 8 -20 -25 -20 -38 0 -46 13 -17
29 24 15 30 14 42 -9z"></path>
<path d="M1310 995 c-15 -18 1 -42 37 -56 27 -10 30 -27 7 -36 -10 -4 -22 1
-30 12 -8 10 -17 16 -20 12 -12 -11 17 -37 41 -37 27 0 49 24 41 45 -3 9 -20
21 -36 27 -17 5 -29 15 -27 22 5 12 22 12 52 0 18 -7 18 -6 6 9 -17 21 -54 22
-71 2z"></path>
<path d="M1423 950 c0 -36 2 -50 4 -32 2 17 2 47 0 65 -2 17 -4 3 -4 -33z"></path>
<path d="M1472 998 c-17 -17 -15 -83 3 -98 8 -7 24 -10 35 -7 13 3 20 0 20 -9
0 -21 -29 -29 -51 -15 -22 13 -25 -1 -4 -19 19 -16 62 -5 69 18 6 20 9 64 7
107 -1 27 -5 30 -34 32 -18 2 -39 -3 -45 -9z m55 -28 c14 -29 1 -60 -26 -60
-30 0 -43 54 -19 78 16 16 30 10 45 -18z"></path>
<path d="M1580 948 c0 -32 4 -58 10 -58 6 0 10 7 10 16 0 8 5 12 10 9 6 -3 10
-1 10 4 0 6 -4 11 -10 11 -15 0 -12 46 5 60 23 19 35 2 35 -51 0 -27 5 -49 10
-49 15 0 12 96 -3 109 -7 6 -28 9 -45 8 -32 -2 -32 -2 -32 -59z"></path>
<path d="M1761 992 c-11 -21 5 -42 42 -55 22 -8 22 -26 1 -34 -10 -4 -22 1
-30 12 -8 10 -17 16 -20 12 -11 -11 17 -37 40 -37 25 0 46 17 46 38 0 7 -16
20 -36 28 -19 8 -33 20 -31 27 5 14 39 10 50 -6 5 -8 7 -4 5 8 -4 28 -53 33
-67 7z"></path>
<path d="M1920 961 c0 -56 13 -71 58 -68 32 2 32 2 32 60 0 55 -1 57 -20 45
-21 -13 -28 -48 -10 -48 14 0 12 -37 -2 -42 -28 -10 -38 4 -38 53 0 27 -4 49
-10 49 -5 0 -10 -22 -10 -49z"></path>
<path d="M2160 950 c0 -33 4 -60 10 -60 6 0 10 27 10 60 0 33 -4 60 -10 60 -6
0 -10 -27 -10 -60z"></path>
<path d="M2217 992 c-35 -38 -12 -102 37 -102 30 0 46 18 46 53 0 62 -47 89
-83 49z m57 -8 c9 -8 16 -24 16 -34 0 -18 -25 -50 -39 -50 -15 0 -31 25 -31
50 0 25 16 50 31 50 4 0 15 -7 23 -16z"></path>
<path d="M86 850 c12 -51 96 -215 151 -299 255 -382 750 -602 1208 -536 432
62 793 321 975 700 41 86 65 160 28 85 -35 -68 -94 -63 -68 6 21 54 7 35 -46
-66 -353 -671 -1206 -852 -1797 -381 -126 100 -230 228 -317 393 -50 94 -62
110 -35 45 14 -33 13 -36 -4 -42 -31 -10 -48 4 -75 63 -14 31 -23 46 -20 32z"></path>
</g>
</svg></svg></g></svg>