<?xml version="1.0" standalone="no"?>
<!DOCTYPE svg PUBLIC "-//W3C//DTD SVG 20010904//EN"
 "http://www.w3.org/TR/2001/REC-SVG-20010904/DTD/svg10.dtd">
<svg version="1.0" xmlns="http://www.w3.org/2000/svg"
 width="1352.000000pt" height="1352.000000pt" viewBox="0 0 1352.000000 1352.000000"
 preserveAspectRatio="xMidYMid meet">
<metadata>
Created by potrace 1.14, written by Peter Selinger 2001-2017
</metadata>
<g transform="translate(0.000000,1352.000000) scale(0.100000,-0.100000)"
fill="#000000" stroke="none">
<path d="M6445 13494 c-991 -63 -1803 -272 -2632 -675 -1068 -519 -1981 -1310
-2641 -2289 -322 -478 -610 -1061 -796 -1612 -337 -999 -435 -2045 -290 -3088
157 -1130 598 -2200 1284 -3115 799 -1065 1855 -1843 3124 -2301 545 -197
1097 -315 1751 -376 188 -17 864 -17 1050 0 931 87 1714 308 2505 708 161 81
223 115 375 204 762 445 1443 1053 1977 1765 754 1004 1196 2168 1324 3480 25
254 25 896 1 1150 -122 1253 -532 2352 -1255 3365 -235 328 -616 757 -897
1010 -363 326 -634 532 -995 757 -906 564 -1905 896 -3005 999 -152 14 -750
26 -880 18z m570 -504 c396 -18 741 -63 1113 -145 2124 -474 3863 -2050 4552
-4124 375 -1130 416 -2383 116 -3535 -397 -1522 -1354 -2833 -2699 -3693 -302
-194 -726 -409 -1062 -540 -472 -184 -977 -313 -1483 -378 -476 -61 -1108 -61
-1584 0 -1194 153 -2281 631 -3228 1419 -179 149 -579 546 -727 722 -767 914
-1241 1948 -1417 3094 -75 490 -90 1058 -41 1563 110 1129 540 2233 1224 3137
661 874 1559 1577 2546 1993 642 270 1302 428 1990 477 139 10 209 13 405 18
41 1 174 -3 295 -8z"/>
<path d="M4919 8943 c-64 -69 -211 -243 -560 -663 -615 -741 -714 -861 -723
-880 -7 -15 4 -34 50 -90 l59 -71 20 24 c11 13 112 134 224 268 113 134 331
395 485 579 154 184 326 390 383 457 l104 123 -3 145 -3 146 -36 -38z"/>
<path d="M5580 7340 l0 -1640 270 0 270 0 0 1640 0 1640 -270 0 -270 0 0
-1640z"/>
<path d="M6760 7340 l0 -1640 268 0 269 0 6 332 c4 182 7 468 7 635 l0 303
361 -2 360 -3 170 -395 c93 -217 178 -413 188 -435 10 -22 56 -129 102 -237
l84 -198 288 0 c158 0 287 3 287 6 0 3 -129 305 -286 672 -158 367 -289 677
-291 689 -4 15 1 23 16 28 31 9 209 145 252 191 181 194 271 425 270 692 0
250 -81 467 -243 650 -168 190 -390 304 -661 341 -49 7 -334 11 -763 11 l-684
0 0 -1640z m1415 1140 c115 -22 247 -114 315 -220 49 -76 80 -176 81 -261 1
-93 -13 -153 -62 -255 -63 -134 -177 -223 -331 -259 -49 -11 -148 -14 -453
-15 -214 0 -396 -1 -404 0 -12 0 -13 27 -8 168 4 92 7 321 8 509 0 256 3 343
12 347 22 11 780 -3 842 -14z"/>
<path d="M1620 6786 l0 -2186 385 0 384 0 3 198 c2 108 3 576 3 1039 0 464 2
843 5 842 3 0 52 -57 110 -127 147 -177 717 -860 751 -899 l27 -32 110 127
c132 154 364 432 422 506 l42 55 -149 178 c-82 98 -297 356 -479 573 -182 217
-415 496 -519 620 -172 206 -507 607 -631 754 -28 34 -139 167 -248 296 -108
129 -201 237 -206 238 -7 2 -10 -786 -10 -2182z"/>
<path d="M10450 8956 c0 -2 -66 -196 -146 -432 -80 -236 -183 -539 -229 -674
-179 -527 -280 -823 -435 -1280 -243 -715 -290 -853 -290 -862 0 -4 123 -8
273 -8 l273 0 36 108 c90 268 199 577 206 584 11 11 1204 10 1211 -1 3 -5 58
-163 121 -351 l115 -342 283 4 c155 3 285 7 288 11 4 3 -15 68 -41 144 -26 76
-121 354 -210 618 -90 264 -232 680 -315 925 -83 245 -232 681 -330 970 -98
289 -184 540 -190 558 l-12 32 -304 0 c-167 0 -304 -2 -304 -4z m300 -818 c0
-6 59 -183 131 -392 72 -210 169 -490 214 -623 65 -189 80 -243 69 -247 -7 -3
-203 -5 -434 -6 -339 0 -421 2 -426 13 -3 9 357 1092 421 1265 5 15 25 7 25
-10z"/>
<path d="M4755 8195 c-110 -131 -319 -380 -465 -554 -146 -174 -304 -363 -352
-420 l-87 -104 61 -74 c49 -59 64 -71 74 -61 6 7 107 128 224 268 117 140 312
374 434 519 122 145 242 290 269 322 l48 59 -3 142 -3 142 -200 -239z"/>
<path d="M4867 7808 c-88 -105 -350 -419 -627 -752 -85 -102 -156 -192 -158
-198 -1 -7 22 -43 53 -80 l55 -66 0 -1056 0 -1057 83 3 82 3 2 1149 3 1148 56
69 c31 38 61 72 65 75 5 3 9 -530 9 -1220 l0 -1226 80 0 80 0 0 1324 0 1324
73 87 72 88 3 -1412 2 -1411 80 0 80 0 0 1655 c0 910 -1 1655 -3 1655 -2 0
-42 -46 -90 -102z"/>
<path d="M6019 5568 c0 -7 0 -75 1 -150 l1 -138 -53 36 c-50 34 -56 36 -124
32 -59 -3 -78 -8 -113 -32 -84 -59 -126 -173 -119 -321 8 -142 56 -232 150
-279 85 -42 171 -33 236 27 l22 20 0 -31 c0 -32 1 -32 50 -32 l50 0 0 440 0
440 -50 0 c-33 0 -50 -4 -51 -12z m-78 -332 c54 -37 73 -85 77 -197 2 -54 -1
-114 -8 -139 -13 -50 -63 -105 -103 -116 -74 -18 -153 37 -178 124 -17 59 -17
184 0 237 34 103 132 145 212 91z"/>
<path d="M7460 5521 l0 -59 50 -4 50 -3 0 63 0 62 -50 0 -50 0 0 -59z"/>
<path d="M11140 5435 l0 -145 -47 30 c-39 25 -58 30 -107 30 -148 0 -233 -103
-244 -298 -6 -115 15 -202 64 -266 42 -55 120 -96 183 -96 55 0 122 29 145 61
l16 23 0 -37 0 -37 50 0 50 0 0 440 0 440 -55 0 -55 0 0 -145z m-73 -196 c18
-12 44 -40 56 -63 19 -35 22 -56 22 -156 0 -92 -4 -122 -19 -153 -56 -113
-199 -110 -254 5 -41 89 -36 265 11 324 50 64 123 81 184 43z"/>
<path d="M11400 5520 c0 -55 2 -60 23 -61 12 0 34 -2 49 -3 26 -2 27 0 30 61
l3 63 -52 0 -53 0 0 -60z"/>
<path d="M9898 5528 l-48 -30 0 -79 0 -79 -35 0 c-35 0 -35 0 -35 -45 0 -45 0
-45 34 -45 l34 0 4 -239 c3 -225 4 -241 24 -268 28 -37 86 -56 147 -48 44 6
48 9 43 29 -3 11 -6 33 -6 49 0 25 -3 27 -38 27 -21 0 -43 5 -50 12 -9 9 -12
73 -12 224 l0 213 48 3 47 3 0 40 0 40 -47 3 -48 3 0 110 c0 60 -3 109 -7 108
-5 0 -29 -14 -55 -31z"/>
<path d="M6467 5349 c-49 -8 -120 -43 -149 -76 -9 -10 -29 -45 -44 -78 -55
-119 -42 -310 28 -404 47 -64 106 -94 197 -99 96 -5 164 20 217 81 31 37 64
111 53 121 -2 2 -25 7 -51 11 -44 7 -48 5 -57 -17 -26 -70 -100 -116 -168
-105 -73 12 -142 97 -143 175 l0 32 216 0 217 0 -6 75 c-6 80 -40 171 -80 213
-53 57 -141 84 -230 71z m111 -103 c37 -19 67 -55 81 -95 24 -74 30 -71 -150
-71 l-161 0 7 38 c9 50 41 100 79 123 37 22 106 25 144 5z"/>
<path d="M7065 5353 c-70 -12 -106 -28 -138 -62 -84 -86 -63 -217 41 -270 21
-10 82 -32 138 -49 106 -33 134 -53 134 -94 0 -60 -75 -106 -156 -94 -61 8
-90 30 -110 83 l-17 45 -46 -7 c-25 -4 -48 -9 -50 -11 -2 -2 2 -25 10 -51 17
-64 79 -126 141 -141 153 -39 296 21 328 136 12 46 12 58 0 104 -19 67 -58 94
-201 139 -139 44 -171 66 -162 113 8 40 38 59 100 64 72 6 117 -16 135 -66 13
-33 14 -34 57 -28 24 3 46 8 49 11 12 11 -12 79 -39 110 -42 47 -145 80 -214
68z"/>
<path d="M7825 5331 c-153 -69 -204 -352 -93 -523 70 -110 224 -140 316 -63
17 14 32 25 34 25 2 0 1 -33 -2 -73 -10 -121 -60 -164 -176 -155 -59 5 -98 31
-108 73 -6 24 -31 35 -80 35 -28 0 -28 -1 -22 -42 17 -106 94 -158 231 -158
123 1 194 42 238 138 21 45 22 62 25 400 l4 352 -51 0 c-51 0 -51 0 -51 -32
l0 -31 -22 20 c-61 55 -165 70 -243 34z m168 -86 c64 -30 97 -106 97 -220 0
-98 -15 -143 -62 -187 -35 -35 -44 -38 -95 -38 -51 0 -58 3 -93 38 -48 48 -63
101 -58 211 4 102 25 151 77 187 41 28 89 31 134 9z"/>
<path d="M8515 5333 c-16 -8 -42 -27 -57 -41 l-28 -26 0 38 0 37 -47 -3 -48
-3 -2 -303 c-1 -167 1 -309 4 -317 3 -10 20 -15 53 -15 l49 0 3 228 c3 201 5
231 22 258 49 81 179 93 226 21 12 -17 16 -73 18 -264 l3 -243 50 0 49 0 0
249 c0 158 -4 260 -11 282 -15 43 -55 88 -96 105 -44 19 -150 17 -188 -3z"/>
<path d="M9367 5336 c-50 -18 -76 -42 -98 -91 -24 -52 -24 -99 1 -151 27 -56
48 -68 196 -115 95 -31 128 -46 141 -65 21 -32 8 -79 -29 -107 -36 -27 -113
-33 -161 -14 -38 16 -77 67 -77 101 0 16 -5 18 -37 12 -21 -3 -44 -6 -50 -6
-36 0 6 -109 60 -157 47 -42 104 -56 194 -51 130 9 213 86 213 200 0 101 -37
135 -203 189 -169 54 -197 83 -143 145 20 24 33 28 88 32 58 4 67 1 95 -22 17
-14 34 -38 37 -52 7 -25 9 -26 53 -20 26 3 49 8 51 11 3 3 -1 24 -8 47 -15 52
-64 100 -117 116 -53 16 -158 15 -206 -2z"/>
<path d="M11787 5335 c-66 -23 -117 -77 -148 -155 -28 -71 -31 -218 -6 -300
68 -229 377 -259 492 -50 29 53 30 59 30 190 0 127 -2 138 -27 186 -32 61 -97
120 -147 134 -51 14 -149 12 -194 -5z m170 -93 c73 -39 111 -139 99 -262 -13
-129 -69 -195 -166 -195 -67 0 -110 27 -142 88 -44 85 -33 271 20 331 49 55
127 71 189 38z"/>
<path d="M7460 5020 l0 -320 50 0 50 0 0 320 0 320 -50 0 -50 0 0 -320z"/>
<path d="M10150 5093 c1 -309 10 -340 105 -384 79 -37 178 -19 243 43 l32 32
0 -42 0 -42 45 0 45 0 0 320 0 320 -49 0 -50 0 -3 -222 c-3 -192 -6 -228 -21
-256 -25 -45 -72 -72 -128 -72 -57 0 -94 26 -109 78 -5 20 -10 135 -10 255 l0
217 -50 0 -50 0 0 -247z"/>
<path d="M11400 5020 l0 -320 50 0 50 0 0 320 0 320 -50 0 -50 0 0 -320z"/>
</g>
</svg>
